<svg aria-hidden="true" style="position: absolute; width: 0; height: 0; overflow: hidden;" version="1.1" xmlns="http://www.w3.org/2000/svg" xmlns:xlink="http://www.w3.org/1999/xlink">
<defs>
<symbol id="icon-heart-remove"  width="18" height="18" viewBox="0 0 18 18" fill="none">
<path d="M15.63 3.4575C15.2469 3.07425 14.7921 2.77023 14.2915 2.56281C13.7909 2.35539 13.2543 2.24863 12.7125 2.24863C12.1706 2.24863 11.634 2.35539 11.1334 2.56281C10.6329 2.77023 10.178 3.07425 9.79497 3.4575L8.99997 4.2525L8.20497 3.4575C7.4312 2.68373 6.38174 2.24903 5.28747 2.24903C4.19319 2.24903 3.14374 2.68373 2.36997 3.4575C1.5962 4.23127 1.1615 5.28072 1.1615 6.375C1.1615 7.46927 1.5962 8.51873 2.36997 9.2925L3.16497 10.0875L8.99997 15.9225L14.835 10.0875L15.63 9.2925C16.0132 8.90943 16.3172 8.45461 16.5247 7.95401C16.7321 7.45342 16.8388 6.91686 16.8388 6.375C16.8388 5.83313 16.7321 5.29657 16.5247 4.79598C16.3172 4.29539 16.0132 3.84056 15.63 3.4575Z" fill="#3470FF" stroke="#3470FF" stroke-width="1.5" stroke-linecap="round" stroke-linejoin="round"/>
</symbol>
<symbol id="icon-heart-add" width="18" height="18" viewBox="0 0 18 18" fill="none">
<path d="M15.63 3.4575C15.2469 3.07425 14.7921 2.77023 14.2915 2.56281C13.7909 2.35539 13.2543 2.24863 12.7125 2.24863C12.1706 2.24863 11.634 2.35539 11.1334 2.56281C10.6329 2.77023 10.178 3.07425 9.79497 3.4575L8.99997 4.2525L8.20497 3.4575C7.4312 2.68373 6.38174 2.24903 5.28747 2.24903C4.19319 2.24903 3.14374 2.68373 2.36997 3.4575C1.5962 4.23127 1.1615 5.28072 1.1615 6.375C1.1615 7.46927 1.5962 8.51873 2.36997 9.2925L3.16497 10.0875L8.99997 15.9225L14.835 10.0875L15.63 9.2925C16.0132 8.90943 16.3172 8.45461 16.5247 7.95401C16.7321 7.45342 16.8388 6.91686 16.8388 6.375C16.8388 5.83313 16.7321 5.29657 16.5247 4.79598C16.3172 4.29539 16.0132 3.84056 15.63 3.4575Z" stroke="white" stroke-opacity="0.8" stroke-width="1.5" stroke-linecap="round" stroke-linejoin="round"/>
</symbol>
<symbol id="icon-x" width="24" height="24" viewBox="0 0 24 24" fill="none">
<path d="M18 6L6 18" stroke="#121417" stroke-width="1.8" stroke-linecap="round" stroke-linejoin="round"/>
<path d="M6 6L18 18" stroke="#121417" stroke-width="1.8" stroke-linecap="round" stroke-linejoin="round"/>
</symbol>
<symbol id="icon-icon-logo" viewBox="0 0 32 32">
<path fill="#ff0" style="fill: var(--color1, #ff0)" d="M8.903 22.706c-0.216 0-0.391 0.175-0.391 0.391 0 0.475-0.386 0.861-0.861 0.861s-0.861-0.386-0.861-0.861 0.386-0.861 0.861-0.861c0.216 0 0.391-0.175 0.391-0.391s-0.175-0.391-0.391-0.391c-0.906 0-1.644 0.737-1.644 1.644s0.737 1.644 1.644 1.644 1.644-0.737 1.644-1.644c0-0.216-0.175-0.391-0.391-0.391z"></path>
<path fill="#ff0" style="fill: var(--color1, #ff0)" d="M25.602 22.706c-0.216 0-0.391 0.175-0.391 0.391 0 0.475-0.386 0.861-0.861 0.861s-0.861-0.386-0.861-0.861 0.386-0.861 0.861-0.861c0.216 0 0.391-0.175 0.391-0.391s-0.175-0.391-0.391-0.391c-0.906 0-1.644 0.737-1.644 1.644s0.737 1.644 1.644 1.644 1.644-0.737 1.644-1.644c0-0.216-0.175-0.391-0.391-0.391z"></path>
<path fill="#ff0" style="fill: var(--color1, #ff0)" d="M26.020 16.026h-0.835c-0.216 0-0.391 0.175-0.391 0.391s0.175 0.391 0.391 0.391h0.835c0.216 0 0.391-0.175 0.391-0.391s-0.175-0.391-0.391-0.391z"></path>
<path fill="#ff0" style="fill: var(--color1, #ff0)" d="M19.757 19.366h-7.515c-0.216 0-0.391 0.175-0.391 0.391s0.175 0.391 0.391 0.391h7.515c0.216 0 0.391-0.175 0.391-0.391s-0.175-0.391-0.391-0.391z"></path>
<path fill="#ff0" style="fill: var(--color1, #ff0)" d="M27.273 14.356h-5.243l-3.559-4.319c-0.004-0.005-0.008-0.010-0.012-0.014-0.323-0.356-0.761-0.585-1.232-0.654v-1.718c0-0.906-0.737-1.644-1.644-1.644h-1.696v-0.026c0-0.216-0.175-0.391-0.391-0.391s-0.391 0.175-0.391 0.391v0.026h-2.14v-0.026c0-0.216-0.175-0.391-0.391-0.391s-0.391 0.175-0.391 0.391v0.026h-1.696c-0.906 0-1.644 0.737-1.644 1.644v1.698c-0.688 0.020-1.315 0.374-1.686 0.957-0.004 0.006-0.007 0.011-0.010 0.017l-2.162 3.814c-0.207 0.329-0.316 0.708-0.316 1.097v4.524c0 0.798 0.471 1.531 1.199 1.868 0.104 0.048 0.225 0.048 0.329-0 0.095-0.044 0.168-0.125 0.203-0.224h0.407c-0.297 0.497-0.468 1.077-0.468 1.696 0 1.827 1.487 3.314 3.314 3.314s3.314-1.487 3.314-3.314c0-0.619-0.171-1.2-0.468-1.696h0.406c0.010 0.037 0.020 0.075 0.028 0.113 0.040 0.178 0.199 0.305 0.382 0.305h9.377c0.183 0 0.341-0.126 0.382-0.305 0.009-0.038 0.018-0.075 0.028-0.113h0.406c-0.297 0.497-0.468 1.077-0.468 1.696 0 1.827 1.487 3.314 3.314 3.314s3.314-1.487 3.314-3.314c0-0.619-0.171-1.2-0.468-1.696h0.406c0.010 0.037 0.020 0.075 0.028 0.113 0.041 0.178 0.199 0.305 0.382 0.305h0.095c0.677 0 1.228-0.551 1.228-1.228v-4.174c0-1.136-0.924-2.061-2.061-2.061zM28.551 17.696h-0.444c-0.245 0-0.444-0.199-0.444-0.444s0.199-0.444 0.444-0.444h0.444v0.887zM18.56 11.377l2.455 2.979h-12.293l1.28-2.382c0.237-0.371 0.64-0.592 1.081-0.592h7.422c0.019 0 0.037-0.002 0.055-0.004zM15.583 6.789c0.475 0 0.861 0.386 0.861 0.861v1.696h-2.557v-2.557h1.696zM13.104 6.789v2.557h-2.14v-2.557h2.14zM8.485 6.789h1.696v2.557h-2.557v-1.696c0-0.475 0.386-0.861 0.861-0.861zM5.453 11.366c0.035 0.010 0.072 0.016 0.11 0.016h1.85l-1.28 2.383c-0.236 0.37-0.638 0.591-1.079 0.591h-1.296l1.695-2.99zM7.65 25.628c-1.396 0-2.531-1.135-2.531-2.531s1.135-2.531 2.531-2.531 2.531 1.135 2.531 2.531-1.135 2.531-2.531 2.531zM9.846 20.618c-0.585-0.519-1.354-0.835-2.196-0.835s-1.611 0.316-2.196 0.835h-0.737c0.585-1.043 1.7-1.722 2.933-1.722 0.778 0 1.509 0.258 2.112 0.747 0.335 0.271 0.613 0.604 0.821 0.975h-0.738zM24.35 25.628c-1.396 0-2.531-1.135-2.531-2.531s1.135-2.531 2.531-2.531 2.531 1.135 2.531 2.531-1.135 2.531-2.531 2.531zM26.546 20.618c-0.585-0.519-1.354-0.835-2.196-0.835s-1.611 0.316-2.196 0.835h-0.738c0.208-0.372 0.487-0.704 0.821-0.975 0.604-0.489 1.334-0.747 2.112-0.747s1.509 0.258 2.112 0.747c0.335 0.271 0.613 0.604 0.821 0.975h-0.738zM28.297 20.993c-0.246-0.764-0.714-1.45-1.343-1.958-0.734-0.594-1.659-0.921-2.605-0.921s-1.871 0.327-2.605 0.921c-0.64 0.518-1.114 1.22-1.356 2.001h-8.777c-0.242-0.781-0.716-1.483-1.356-2.001-0.734-0.594-1.659-0.921-2.605-0.921-1.681 0-3.185 1.024-3.823 2.546-0.237-0.236-0.378-0.559-0.378-0.902v-2.948h20.065c0.216 0 0.391-0.175 0.391-0.391s-0.175-0.391-0.391-0.391h-20.065v-0.793c0-0.032 0.001-0.064 0.004-0.095 0.007 0 0.015 0.001 0.022 0.001h1.579c0.716 0 1.369-0.362 1.749-0.969 0.005-0.007 0.009-0.015 0.013-0.022l1.597-2.972c0.065-0.121 0.062-0.268-0.009-0.386s-0.198-0.191-0.336-0.191h-2.16c0.243-0.296 0.605-0.47 0.995-0.47h10.026c0.358 0 0.701 0.151 0.944 0.414l0.046 0.056h-6.836c-0.716 0-1.371 0.363-1.751 0.97-0.005 0.007-0.009 0.015-0.013 0.022l-1.596 2.971c-0.065 0.121-0.062 0.268 0.009 0.386s0.198 0.191 0.336 0.191h19.205c0.568 0 1.051 0.373 1.217 0.887h-0.382c-0.676 0-1.226 0.55-1.226 1.226s0.55 1.226 1.226 1.226h0.444v2.112c0 0.177-0.104 0.33-0.254 0.402z"></path>
</symbol>
</defs>
</svg>



